# AST/ASF file generated using VICON BodyLanguage
# -----------------------------------------------
:version 1.10
:name VICON
:units
  mass 1.0
  length 0.45
  angle deg
:documentation
   .ast/.asf automatically generated from VICON data using
   VICON BodyBuilder and BodyLanguage model FoxedUp or BRILLIANT.MOD
:root
   order TX TY TZ RX RY RZ
   axis XYZ
   position 0 0 0  
   orientation 0 0 0 
:bonedata
  begin
     id 1 
     name lhipjoint
     direction 0.561001 -0.76473 0.316963 
     length 2.4722 
     axis 0 0 0  XYZ
  end
  begin
     id 2 
     name lfemur
     direction 0.34202 -0.939693 0  
     length 7.59403  
     axis 0 0 20  XYZ
    dof rx ry rz
    limits (-160.0 20.0)
           (-70.0 70.0)
           (-60.0 70.0)
  end
  begin
     id 3 
     name ltibia
     direction 0.34202 -0.939693 0   
     length 7.89655   
     axis 0 0 20   XYZ
    dof rx
    limits (-10.0 170.0)
  end
  begin
     id 4 
     name lfoot
     direction 0.061296 -0.168409 0.98381   
     length 2.73287   
     axis -90 7.62852e-016 20   XYZ
    dof rx rz
    limits (-45.0 90.0)
           (-70.0 20.0)
  end
  begin
     id 5 
     name ltoes
     direction 1.53547e-011 -4.21984e-011 1   
     length 1.37057   
     axis -90 7.62852e-016 20   XYZ
    dof rx
    limits (-90.0 20.0)
  end
  begin
     id 6 
     name rhipjoint
     direction -0.559611 -0.765599 0.317323   
     length 2.46939  
     axis 0 0 0  XYZ 
  end
  begin
     id 7 
     name rfemur
     direction -0.34202 -0.939693 0   
     length 7.53712   
     axis 0 0 -20   XYZ
    dof rx ry rz
    limits (-160.0 20.0)
           (-70.0 70.0)
           (-70.0 60.0)
  end
  begin
     id 8 
     name rtibia
     direction -0.34202 -0.939693 0   
     length 8.12549   
     axis 0 0 -20   XYZ
    dof rx
    limits (-10.0 170.0)
 end
 begin
     id 9 
     name rfoot
     direction -0.066984 -0.184037 0.980634   
     length 2.67541  
     axis -90 -7.62852e-016 -20   XYZ
    dof rx rz
    limits (-45.0 90.0)
           (-20.0 70.0)
  end
  begin
     id 10 
     name rtoes
     direction -1.53549e-011 -4.21786e-011 1   
     length 1.34085   
     axis -90 -7.62852e-016 -20   XYZ
    dof rx
    limits (-90.0 20.0)
  end
  begin
     id 11 
     name lowerback
     direction -0.0522728 0.992594 -0.109658   
     length 2.05633   
     axis 0 0 0   XYZ
    dof rx ry rz
    limits (-20.0 45.0)
           (-30.0 30.0)
           (-30.0 30.0)
  end
  begin
     id 12 
     name upperback
     direction 0.00589338 0.999977 0.00335704   
     length 2.05845   
     axis 0 0 0   XYZ
    dof rx ry rz
    limits (-20.0 45.0)
           (-30.0 30.0)
           (-30.0 30.0)
  end
  begin
     id 13 
     name thorax
     direction 0.0292928 0.998059 0.0549487   
     length 2.09281   
     axis 0 0 0   XYZ
    dof rx ry rz
    limits (-20.0 45.0)
           (-30.0 30.0)
           (-30.0 30.0)
  end
  begin
     id 14 
     name lowerneck
     direction 0.0356368 0.980775 0.191858   
     length 1.84767   
     axis 0 0 0   XYZ
    dof rx ry rz
    limits (-20.0 45.0)
           (-30.0 30.0)
           (-30.0 30.0)
  end
  begin
     id 15 
     name upperneck
     direction -0.0227605 0.98931 -0.14404   
     length 1.89582   
     axis 0 0 0   XYZ
    dof rx ry rz
    limits (-20.0 45.0)
           (-30.0 30.0)
           (-30.0 30.0)
  end
  begin
     id 16
     name head
     direction -0.00932985 0.997511 -0.0698904  
     length 1.90213  
     axis 0 0 0   XYZ
    dof rx ry rz
    limits (-20.0 45.0)
           (-30.0 30.0)
           (-30.0 30.0)
  end
  begin
     id 17 
     name lclavicle
     direction 0.873442 0.479511 0.0846686  
     length 3.41193  
     axis 0 0 0   XYZ
    dof ry rz
    limits (-20.0 10.0)
           (0.0 20.0)
  end
  begin
     id 18 
     name lhumerus
     direction 1 -4.4897e-011 -5.62117e-018   
     length 5.59864   
     axis 180 -30 -90   XYZ
    dof rx ry rz
    limits (-60.0 90.0)
           (-90.0 90.0)
           (-90.0 90.0)
  end
  begin
     id 19
     name lradius
     direction 1 -4.48966e-011 -6.26295e-027   
     length 3.59542   
     axis 180 -30 -90   XYZ
    dof rx
    limits (-10.0 170.0)
  end
  begin
     id 20
     name lwrist
     direction 1 -4.48947e-011 -1.74096e-026   
     length 1.79771   
     axis 1.04567e-014 90 90   XYZ
    dof ry
    limits (-180.0 0.0)
 end
  begin
     id 21 
     name lhand
     direction 1 -4.49085e-011 -3.48469e-026   
     length 0.572014   
     axis 2.22196e-014 90 90   XYZ
    dof rx rz
    limits (-90.0 90.0)
           (-45.0 45.0)
  end
  begin
     id 22 
     name lfingers
     direction 1 -4.48884e-011 -6.96135e-026   
     length 0.461173   
     axis 4.44383e-014 90 90   XYZ
    dof rx
    limits (0.0 90.0)
  end
  begin
     id 23
     name lthumb
     direction 0.707107 -6.34976e-011 0.707107   
     length 0.662154   
     axis -90 45 -5.4397e-014   XYZ
    dof rx rz
    limits (-45.0 45.0)
           (-45.0 45.0)
  end
  begin
     id 24 
     name rclavicle
     direction -0.890242 0.443271 0.104786   
     length 3.46753  
     axis 0 0 0   XYZ 
    dof ry rz
    limits (-10.0 20.0)
           (-20.0 0.0)
  end
  begin
     id 25 
     name rhumerus
     direction -1 -4.48963e-011 -5.41723e-018  
     length 5.8094   
     axis 180 30 90   XYZ
    dof rx ry rz
    limits (-90.0 60.0)
           (-90.0 90.0)
           (-90.0 90.0)
  end
  begin
     id 26 
     name rradius
     direction -1 -4.48958e-011 -6.51059e-027   
     length 3.66953   
     axis 180 30 90   XYZ
    dof rx
    limits (-10.0 170.0)
  end
  begin
     id 27 
     name rwrist
     direction -1 -4.48975e-011 -1.74124e-026   
     length 1.83476   
     axis 1.04567e-014 -90 -90   XYZ
    dof ry
    limits (-180.0 0.0)
  end
  begin
     id 28
     name rhand
     direction -1 -4.49013e-011 -3.48326e-026   
     length 0.57843   
     axis 2.22196e-014 -90 -90   XYZ
    dof rx rz
    limits (-90.0 90.0)
           (-45.0 45.0)
  end
  begin
     id 29
     name rfingers
     direction -1 -4.49023e-011 -6.9669e-026   
     length 0.466345   
     axis 4.44383e-014 -90 -90   XYZ
    dof rx
    limits (0.0 90.0)
  end
  begin
     id 30
     name rthumb
     direction -0.707107 -6.34926e-011 0.707107   
     length 0.669581   
     axis -90 -45 5.4397e-014   XYZ
    dof rx rz
    limits (-45.0 45.0)
           (-45.0 45.0)
  end
:hierarchy
  begin
    root lhipjoint rhipjoint lowerback
    lhipjoint lfemur
    lfemur ltibia
    ltibia lfoot
    lfoot ltoes
    rhipjoint rfemur
    rfemur rtibia
    rtibia rfoot
    rfoot rtoes
    lowerback upperback
    upperback thorax
    thorax lowerneck lclavicle rclavicle
    lowerneck upperneck
    upperneck head
    lclavicle lhumerus
    lhumerus lradius
    lradius lwrist
    lwrist lhand lthumb
    lhand lfingers
    rclavicle rhumerus
    rhumerus rradius
    rradius rwrist
    rwrist rhand rthumb
    rhand rfingers
  end

#!OML:ASF H:\SkateBoarding\Project 1\Capture day 1\Session 1\Skater.ASF
:FULLY-SPECIFIED
:DEGREES
1
root 0.861148 19.0231 -38.2064 8.20627 72.437 3.09802
lowerback 12.0693 -2.22526 -2.33705
upperback -0.634951 -3.25869 0.379753
thorax -7.29671 -1.48539 2.30597
lowerneck -17.0933 -6.12052 0.0298227
upperneck 40.2181 -9.61653 2.78333
head 18.0252 -3.08425 -0.506803
rclavicle 3.88251e-014 2.48481e-016
rhumerus -20.7817 12.5951 -77.1769
rradius 42.3675
rwrist -12.1484
rhand -44.8484 0.926615
rfingers 7.12502
rthumb -17.6378 -28.2934
lclavicle 3.88251e-014 2.48481e-016
lhumerus -22.5586 -30.3027 89.7624
lradius 65.8714
lwrist 31.3183
lhand -35.2777 15.1213
lfingers 7.12502
lthumb -8.41277 44.9338
rfemur -26.7043 -11.1576 25.7875
rtibia 49.6359
rfoot -47.1337 -6.67625
rtoes -13.4107
lfemur -13.1665 -6.69355 -12.111
ltibia 35.9234
lfoot -29.32 -19.5921
ltoes 12.6116
2
root 0.889358 19.0493 -37.8434 7.8109 73.1945 2.53262
lowerback 10.9977 -2.45171 -1.87571
upperback -0.0889699 -3.47634 0.146857
thorax -6.14036 -1.63864 1.76471
lowerneck -18.4252 -6.0386 0.0917871
upperneck 40.3031 -9.69556 3.00378
head 18.4529 -3.04472 -0.485562
rclavicle 2.38542e-014 5.36719e-015
rhumerus -19.8564 12.4213 -77.8857
rradius 42.2972
rwrist -12.0349
rhand -44.8724 0.676619
rfingers 7.12502
rthumb -17.6608 -28.5413
lclavicle 2.38542e-014 5.36719e-015
lhumerus -21.8624 -30.1311 88.5365
lradius 65.2543
lwrist 32.2242
lhand -35.0701 15.6697
lfingers 7.12502
lthumb -8.21239 45.4901
rfemur -26.5099 -11.6362 25.8481
rtibia 49.0799
rfoot -47.1118 -6.83352
rtoes -13.5152
lfemur -13.0436 -7.42479 -11.9554
ltibia 35.2187
lfoot -28.7642 -18.9771
ltoes 13.0819
3
root 0.915855 19.0763 -37.4785 7.67619 73.7977 2.24563
lowerback 10.599 -2.52791 -1.96295
upperback -0.176094 -3.58094 0.200136
thorax -5.99495 -1.6901 1.86692
lowerneck -18.7494 -6.03329 -0.0514716
upperneck 40.4872 -9.62393 2.93612
head 18.6529 -3.0295 -0.490074
rclavicle 1.66234e-014 -4.77083e-015
rhumerus -20.0418 12.6006 -78.3086
rradius 42.4444
rwrist -11.9978
rhand -44.87 0.321786
rfingers 7.12502
rthumb -17.6585 -28.8963
lclavicle 1.66234e-014 -4.77083e-015
lhumerus -22.4188 -29.6488 88.4905
lradius 64.6633
lwrist 32.8941
lhand -34.7954 16.3111
lfingers 7.12502
lthumb -7.94726 46.1417
rfemur -26.3102 -11.578 25.7978
rtibia 48.605
rfoot -47.3762 -6.95612
rtoes -13.389
lfemur -12.9177 -7.98471 -11.9199
ltibia 34.6691
lfoot -29.6793 -18.6039
ltoes 12.6349
4
root 0.942046 19.0969 -37.1179 7.45329 74.2526 1.90177
lowerback 10.1681 -2.58862 -2.00729
upperback -0.421415 -3.66571 0.206969
thorax -6.00429 -1.73065 1.8963
lowerneck -18.2952 -6.00973 -0.122881
upperneck 40.507 -9.49604 2.86961
head 18.5361 -3.00517 -0.463582
rclavicle -3.66012e-014 9.34288e-015
rhumerus -20.6157 12.8551 -78.9077
rradius 42.5653
rwrist -11.8619
rhand -44.8999 0.0848796
rfingers 7.12502
rthumb -17.6874 -29.1307
lclavicle -3.66012e-014 9.34288e-015
lhumerus -23.5409 -29.1425 88.6041
lradius 64.2184
lwrist 33.6264
lhand -34.5822 16.6618
lfingers 7.12502
lthumb -7.74157 46.5
rfemur -26.1101 -11.871 25.7367
rtibia 48.1428
rfoot -47.1195 -6.43189
rtoes -12.6152
lfemur -12.6838 -8.359 -11.9137
ltibia 34.127
lfoot -30.262 -18.6859
ltoes 11.4094
5
root 0.967052 19.1183 -36.7695 6.87161 74.2775 1.3364
lowerback 9.9079 -2.55128 -2.05615
upperback -0.643638 -3.61918 0.266327
thorax -6.08719 -1.70375 1.97227
lowerneck -17.7036 -6.00402 -0.293206
upperneck 40.4698 -9.36206 2.82639
head 18.3575 -2.99646 -0.403308
rclavicle -5.86415e-015 7.95139e-015
rhumerus -21.1079 12.723 -79.3869
rradius 42.479
rwrist -11.5726
rhand -44.5694 0.515577
rfingers 7.12502
rthumb -17.3692 -28.7283
lclavicle -5.86415e-015 7.95139e-015
lhumerus -24.6616 -28.3113 88.8339
lradius 63.6001
lwrist 33.7654
lhand -34.3995 16.9051
lfingers 7.12502
lthumb -7.56518 46.7498
rfemur -25.7714 -11.8907 25.6516
rtibia 47.721
rfoot -46.9852 -6.15418
rtoes -12.1428
lfemur -12.304 -8.73424 -11.9935
ltibia 33.6349
lfoot -30.9111 -17.9871
ltoes 10.7519
6
root 0.992392 19.1399 -36.4157 6.44798 74.474 0.875221
lowerback 9.53926 -2.55879 -2.09595
upperback -0.768989 -3.62875 0.281114
thorax -6.00715 -1.70883 1.99528
lowerneck -17.4611 -5.98744 -0.414386
upperneck 40.4804 -9.26578 2.81048
head 18.3026 -2.98174 -0.360419
rclavicle 2.83517e-014 1.2921e-014
rhumerus -21.4288 12.7328 -79.9224
rradius 42.4823
rwrist -11.4455
rhand -44.4426 0.509578
rfingers 7.12502
rthumb -17.2473 -28.7451
lclavicle 2.83517e-014 1.2921e-014
lhumerus -25.4924 -27.6301 88.8047
lradius 63.0188
lwrist 34.1729
lhand -34.1893 17.2993
lfingers 7.12502
lthumb -7.36232 47.1512
rfemur -25.5042 -11.9467 25.5721
rtibia 47.3147
rfoot -46.8505 -5.92091
rtoes -11.7105
lfemur -12.0316 -9.13765 -12.0362
ltibia 33.1875
lfoot -31.4082 -17.5523
ltoes 10.1975
7
root 1.01712 19.1614 -36.0646 6.01441 74.5458 0.433403
lowerback 9.24018 -2.53761 -2.16304
upperback -0.926598 -3.60463 0.299543
thorax -5.99997 -1.69454 2.03762
lowerneck -17.1126 -5.97289 -0.546833
upperneck 40.4765 -9.16491 2.79805
head 18.2115 -2.96888 -0.309166
rclavicle -4.17448e-014 1.72943e-014
rhumerus -21.8139 12.7143 -80.4687
rradius 42.4676
rwrist -11.3399
rhand -44.3128 0.517942
rfingers 7.12502
rthumb -17.1223 -28.7476
lclavicle -4.17448e-014 1.72943e-014
lhumerus -26.4044 -26.8764 88.8095
lradius 62.4281
lwrist 34.5414
lhand -33.9911 17.7006
lfingers 7.12502
lthumb -7.17098 47.5591
rfemur -25.2208 -11.9297 25.4714
rtibia 46.9242
rfoot -46.6701 -5.68927
rtoes -11.2616
lfemur -11.7225 -9.49423 -12.1149
ltibia 32.7575
lfoot -31.9017 -17.0497
ltoes 9.67931
8
root 1.04117 19.183 -35.7161 5.55735 74.5059 -0.00577178
lowerback 8.97566 -2.49727 -2.22754
upperback -1.07684 -3.55511 0.309709
thorax -6.00638 -1.66747 2.06823
lowerneck -16.7366 -5.95289 -0.68548
upperneck 40.4564 -9.06276 2.80733
head 18.1062 -2.95457 -0.245878
rclavicle 5.37216e-014 9.14409e-015
rhumerus -22.1913 12.6584 -81.0354
rradius 42.4248
rwrist -11.2582
rhand -44.1865 0.524156
rfingers 7.12502
rthumb -17.0007 -28.7519
lclavicle 5.37216e-014 9.14409e-015
lhumerus -27.3126 -26.0595 88.7807
lradius 61.819
lwrist 34.914
lhand -33.7981 18.1188
lfingers 7.12502
lthumb -6.98464 47.9836
rfemur -24.9217 -11.8542 25.3607
rtibia 46.5392
rfoot -46.4438 -5.50092
rtoes -10.8523
lfemur -11.3819 -9.74224 -12.2121
ltibia 32.3529
lfoot -32.289 -16.4743
ltoes 9.17948
9
root 1.06453 19.2048 -35.3699 5.10215 74.3773 -0.422382
lowerback 8.7418 -2.44306 -2.29176
upperback -1.21239 -3.48728 0.312711
thorax -6.01603 -1.63129 2.09019
lowerneck -16.3641 -5.92366 -0.828918
upperneck 40.4227 -8.95845 2.84452
head 17.9969 -2.93666 -0.16907
rclavicle -2.4699e-014 4.57205e-015
rhumerus -22.5441 12.5654 -81.6127
rradius 42.3567
rwrist -11.2031
rhand -44.0771 0.492897
rfingers 7.12502
rthumb -16.8954 -28.7922
lclavicle -2.4699e-014 4.57205e-015
lhumerus -28.1924 -25.1849 88.7106
lradius 61.1865
lwrist 35.3298
lhand -33.6238 18.5821
lfingers 7.12502
lthumb -6.8164 48.4523
rfemur -24.617 -11.7268 25.2415
rtibia 46.1678
rfoot -46.196 -5.36302
rtoes -10.4752
lfemur -11.0387 -9.88743 -12.3247
ltibia 32.0054
lfoot -32.6003 -15.822
ltoes 8.70202
10
root 1.08709 19.2267 -35.0259 4.65102 74.1657 -0.822334
lowerback 8.53371 -2.37731 -2.35087
upperback -1.33787 -3.40381 0.309261
thorax -6.03118 -1.58745 2.10185
lowerneck -15.9912 -5.8844 -0.974398
upperneck 40.3753 -8.85044 2.90694
head 17.882 -2.91455 -0.0801524
rclavicle -9.2584e-014 -8.34896e-015
rhumerus -22.8803 12.4454 -82.2033
rradius 42.2669
rwrist -11.1607
rhand -43.9905 0.397969
rfingers 7.12502
rthumb -16.8121 -28.8942
lclavicle -9.2584e-014 -8.34896e-015
lhumerus -29.0522 -24.252 88.5983
lradius 60.5334
lwrist 35.8201
lhand -33.4563 19.0777
lfingers 7.12502
lthumb -6.65468 48.9532
rfemur -24.3143 -11.5423 25.1207
rtibia 45.807
rfoot -45.9257 -5.28076
rtoes -10.151
lfemur -10.7079 -9.91772 -12.4444
ltibia 31.7275
lfoot -32.8452 -15.1302
ltoes 8.16985
11
root 1.10902 19.2486 -34.6834 4.20361 73.8951 -1.20915
lowerback 8.3444 -2.30551 -2.41012
upperback -1.45537 -3.31224 0.30401
thorax -6.04915 -1.53947 2.11169
lowerneck -15.6158 -5.84008 -1.12381
upperneck 40.317 -8.74271 2.98744
head 17.7622 -2.89105 0.0170711
rclavicle -2.16178e-015 -4.57205e-015
rhumerus -23.2045 12.31 -82.7998
rradius 42.155
rwrist -11.1469
rhand -43.9377 0.279267
rfingers 7.12502
rthumb -16.7612 -29.0172
lclavicle -2.16178e-015 -4.57205e-015
lhumerus -29.8975 -23.2618 88.4498
lradius 59.8575
lwrist 36.3983
lhand -33.2995 19.5913
lfingers 7.12502
lthumb -6.50338 49.4714
rfemur -24.0119 -11.2881 25.0049
rtibia 45.4543
rfoot -45.675 -5.26009
rtoes -9.86503
lfemur -10.4004 -9.83797 -12.5626
ltibia 31.5269
lfoot -33.0444 -14.3967
ltoes 7.53404
12
root 1.13058 19.2704 -34.3422 3.77343 73.5858 -1.57413
lowerback 8.16502 -2.23392 -2.46996
upperback -1.56618 -3.22074 0.298997
thorax -6.06575 -1.49143 2.12269
lowerneck -15.2402 -5.79887 -1.27099
upperneck 40.2536 -8.64482 3.07238
head 17.6402 -2.87075 0.113263
rclavicle -5.4144e-014 -2.78299e-015
rhumerus -23.5186 12.1444 -83.3912
rradius 42.0184
rwrist -11.1022
rhand -43.8721 0.142545
rfingers 7.12502
rthumb -16.698 -29.1593
lclavicle -5.4144e-014 -2.78299e-015
lhumerus -30.7259 -22.211 88.2689
lradius 59.1512
lwrist 37.0555
lhand -33.1427 20.1002
lfingers 7.12502
lthumb -6.35198 49.9849
rfemur -23.7125 -10.9793 24.8942
rtibia 45.1076
rfoot -45.4525 -5.29776
rtoes -9.6079
lfemur -10.1273 -9.67104 -12.6789
ltibia 31.4047
lfoot -33.2066 -13.6336
ltoes 6.77336
